<svg width="58" height="64" viewBox="0 0 58 64" fill="none" xmlns="http://www.w3.org/2000/svg">
<path d="M1.40124 60V50.13H3.19324V54.246H8.27524V50.13H10.0672V60H8.27524V55.744H3.19324V60H1.40124ZM11.1654 60L15.6314 50.13H17.1014L21.5674 60H19.7474L18.7674 57.718H13.9514L12.9854 60H11.1654ZM16.3454 52.076L14.5674 56.29H18.1514L16.3734 52.076H16.3454ZM22.6473 60V50.13H26.9593C27.9953 50.13 28.798 50.3587 29.3673 50.816C29.9367 51.264 30.2213 51.8893 30.2213 52.692C30.2213 53.224 30.086 53.6813 29.8153 54.064C29.5447 54.4467 29.1713 54.7267 28.6953 54.904C29.2553 55.0627 29.6893 55.3427 29.9973 55.744C30.3147 56.136 30.4733 56.6353 30.4733 57.242C30.4733 58.1193 30.1747 58.8007 29.5773 59.286C28.9893 59.762 28.168 60 27.1133 60H22.6473ZM24.3693 54.316H26.6513C27.874 54.316 28.4853 53.8447 28.4853 52.902C28.4853 51.9593 27.874 51.488 26.6513 51.488H24.3693V54.316ZM24.3693 58.642H26.8893C28.1213 58.642 28.7373 58.1473 28.7373 57.158C28.7373 56.1687 28.1213 55.674 26.8893 55.674H24.3693V58.642ZM32.286 60V50.13H38.852V51.558H34.008V54.274H38.544V55.702H34.008V58.572H38.852V60H32.286ZM40.6395 60V50.13H44.9235C46.0062 50.13 46.8415 50.4007 47.4295 50.942C48.0175 51.4833 48.3115 52.2393 48.3115 53.21C48.3115 54.1807 48.0175 54.9413 47.4295 55.492C46.8415 56.0333 46.0062 56.304 44.9235 56.304H42.4315V60H40.6395ZM42.4315 54.89H44.6435C45.9315 54.89 46.5755 54.33 46.5755 53.21C46.5755 52.0993 45.9315 51.544 44.6435 51.544H42.4315V54.89ZM48.1865 60L51.9525 54.974L48.3265 50.13H50.4125L52.9745 53.672L55.5365 50.13H57.6365L54.0105 54.974L57.7625 60H55.6625L52.9745 56.304L50.3005 60H48.1865Z" fill="#F37335"/>
<path fill-rule="evenodd" clip-rule="evenodd" d="M9.65087 38.3654C10.5187 39.2115 11.9257 39.2115 12.7936 38.3654L29 22.5641L45.2064 38.3654C46.0743 39.2115 47.4813 39.2115 48.3491 38.3654C49.217 37.5193 49.217 36.1474 48.3491 35.3013L30.5713 17.9679C29.7035 17.1218 28.2965 17.1218 27.4287 17.9679L9.65087 35.3013C8.78304 36.1474 8.78304 37.5193 9.65087 38.3654ZM9.65087 21.0321C10.5187 21.8782 11.9257 21.8782 12.7936 21.0321L29 5.23079L45.2064 21.0321C46.0743 21.8782 47.4813 21.8782 48.3491 21.0321C49.217 20.1859 49.217 18.8141 48.3491 17.9679L30.5713 0.634599C29.7035 -0.211536 28.2965 -0.211536 27.4287 0.634599L9.65087 17.9679C8.78304 18.8141 8.78304 20.1859 9.65087 21.0321Z" fill="#F37335"/>
</svg>
