<svg width="58" height="58" viewBox="0 0 58 58" fill="none" xmlns="http://www.w3.org/2000/svg">
<path d="M1.40124 54V44.13H3.19324V48.246H8.27524V44.13H10.0672V54H8.27524V49.744H3.19324V54H1.40124ZM11.1654 54L15.6314 44.13H17.1014L21.5674 54H19.7474L18.7674 51.718H13.9514L12.9854 54H11.1654ZM16.3454 46.076L14.5674 50.29H18.1514L16.3734 46.076H16.3454ZM22.6473 54V44.13H26.9593C27.9953 44.13 28.798 44.3587 29.3673 44.816C29.9367 45.264 30.2213 45.8893 30.2213 46.692C30.2213 47.224 30.086 47.6813 29.8153 48.064C29.5447 48.4467 29.1713 48.7267 28.6953 48.904C29.2553 49.0627 29.6893 49.3427 29.9973 49.744C30.3147 50.136 30.4733 50.6353 30.4733 51.242C30.4733 52.1193 30.1747 52.8007 29.5773 53.286C28.9893 53.762 28.168 54 27.1133 54H22.6473ZM24.3693 48.316H26.6513C27.874 48.316 28.4853 47.8447 28.4853 46.902C28.4853 45.9593 27.874 45.488 26.6513 45.488H24.3693V48.316ZM24.3693 52.642H26.8893C28.1213 52.642 28.7373 52.1473 28.7373 51.158C28.7373 50.1687 28.1213 49.674 26.8893 49.674H24.3693V52.642ZM32.286 54V44.13H38.852V45.558H34.008V48.274H38.544V49.702H34.008V52.572H38.852V54H32.286ZM40.6395 54V44.13H44.9235C46.0062 44.13 46.8415 44.4007 47.4295 44.942C48.0175 45.4833 48.3115 46.2393 48.3115 47.21C48.3115 48.1807 48.0175 48.9413 47.4295 49.492C46.8415 50.0333 46.0062 50.304 44.9235 50.304H42.4315V54H40.6395ZM42.4315 48.89H44.6435C45.9315 48.89 46.5755 48.33 46.5755 47.21C46.5755 46.0993 45.9315 45.544 44.6435 45.544H42.4315V48.89ZM48.1865 54L51.9525 48.974L48.3265 44.13H50.4125L52.9745 47.672L55.5365 44.13H57.6365L54.0105 48.974L57.7625 54H55.6625L52.9745 50.304L50.3005 54H48.1865Z" fill="#FBB731"/>
<path fill-rule="evenodd" clip-rule="evenodd" d="M9.65087 39.3654C10.5187 40.2115 11.9257 40.2115 12.7936 39.3654L29 23.5641L45.2064 39.3654C46.0743 40.2115 47.4813 40.2115 48.3491 39.3654C49.217 38.5193 49.217 37.1474 48.3491 36.3013L30.5713 18.9679C29.7035 18.1218 28.2965 18.1218 27.4287 18.9679L9.65087 36.3013C8.78304 37.1474 8.78304 38.5193 9.65087 39.3654ZM9.65087 22.0321C10.5187 22.8782 11.9257 22.8782 12.7936 22.0321L29 6.23079L45.2064 22.0321C46.0743 22.8782 47.4813 22.8782 48.3491 22.0321C49.217 21.1859 49.217 19.8141 48.3491 18.9679L30.5713 1.6346C29.7035 0.788464 28.2965 0.788464 27.4287 1.6346L9.65087 18.9679C8.78304 19.8141 8.78304 21.1859 9.65087 22.0321Z" fill="#FBB731" stroke="black" stroke-linecap="round" stroke-linejoin="round"/>
</svg>
